<svg width="136.000000" height="90.000000" viewBox="0 0 136 90" fill="none" xmlns="http://www.w3.org/2000/svg" xmlns:xlink="http://www.w3.org/1999/xlink">
	<desc>
			Created with Pixso.
	</desc>
	<defs>
		<filter id="filter_15_4736_dd" x="0.000000" y="25.000000" width="65.000000" height="65.000000" filterUnits="userSpaceOnUse" color-interpolation-filters="sRGB">
			<feFlood flood-opacity="0" result="BackgroundImageFix"/>
			<feColorMatrix in="SourceAlpha" type="matrix" values="0 0 0 0 0 0 0 0 0 0 0 0 0 0 0 0 0 0 127 0" result="hardAlpha"/>
			<feOffset dx="0" dy="4"/>
			<feGaussianBlur stdDeviation="1.33333"/>
			<feComposite in2="hardAlpha" operator="out" k2="-1" k3="1"/>
			<feColorMatrix type="matrix" values="0 0 0 0 0 0 0 0 0 0 0 0 0 0 0 0 0 0 0.25 0"/>
			<feBlend mode="normal" in2="BackgroundImageFix" result="effect_dropShadow_1"/>
			<feBlend mode="normal" in="SourceGraphic" in2="effect_dropShadow_1" result="shape"/>
		</filter>
		<filter id="filter_15_4737_dd" x="93.000000" y="0.000000" width="43.000000" height="43.000000" filterUnits="userSpaceOnUse" color-interpolation-filters="sRGB">
			<feFlood flood-opacity="0" result="BackgroundImageFix"/>
			<feColorMatrix in="SourceAlpha" type="matrix" values="0 0 0 0 0 0 0 0 0 0 0 0 0 0 0 0 0 0 127 0" result="hardAlpha"/>
			<feOffset dx="0" dy="4"/>
			<feGaussianBlur stdDeviation="1.33333"/>
			<feComposite in2="hardAlpha" operator="out" k2="-1" k3="1"/>
			<feColorMatrix type="matrix" values="0 0 0 0 0 0 0 0 0 0 0 0 0 0 0 0 0 0 0.25 0"/>
			<feBlend mode="normal" in2="BackgroundImageFix" result="effect_dropShadow_1"/>
			<feBlend mode="normal" in="SourceGraphic" in2="effect_dropShadow_1" result="shape"/>
		</filter>
	</defs>
	<g filter="url(#filter_15_4736_dd)">
		<path id="Star 2" d="M32.5 25L24.8 45.8L4 53.5L24.8 61.19L32.5 82L40.19 61.19L61 53.5L40.19 45.8L32.5 25Z" fill="#BCEC30" fill-opacity="1.000000" fill-rule="evenodd"/>
		<path id="Star 2" d="M24.8 45.8L4 53.5L24.8 61.19L32.5 82L40.19 61.19L61 53.5L40.19 45.8L32.5 25L24.8 45.8ZM32.5 27.88L25.58 46.58L6.88 53.5L25.58 60.41L32.5 79.11L39.41 60.41L58.11 53.5L39.41 46.58L32.5 27.88Z" fill="#202027" fill-opacity="1.000000" fill-rule="evenodd"/>
	</g>
	<g filter="url(#filter_15_4737_dd)">
		<path id="Star 3" d="M109.77 12.77L97 17.5L109.77 22.22L114.5 35L119.22 22.22L132 17.5L119.22 12.77L114.5 0L109.77 12.77ZM114.5 2.88L110.55 13.55L99.88 17.5L110.55 21.44L114.5 32.11L118.44 21.44L129.11 17.5L118.44 13.55L114.5 2.88Z" fill="#202027" fill-opacity="1.000000" fill-rule="evenodd"/>
	</g>
</svg>
